# xmcd CD database file generated by OrangeCD 6.4
#
# Track frame offsets:
#	150
#	21014
#	38902
#	57386
#	73066
#	93083
#	101947
#	111616
#	131741
#	152191
#	210124
#	216974
#	236701
#	246161
#	253348
#	263468
#
# Disc length: 3731 seconds
#
# Revision: 0
# Processed by: cddbd v1.5.2PL0 Copyright (c) Steve Scherf et al.
# Submitted via: OrangeCD 6.4
#
DISCID=ec0e9110
DTITLE=Jimi Hendrix - Studio Sessions Volume. 1
DYEAR=2008
DGENRE=Blues Rock
TTITLE0=My Friend
TTITLE1=Somewhere
TTITLE2=Somewhere
TTITLE3=Little Miss Strange Instrumental
TTITLE4=1983
TTITLE5=Gypsy Eyes
TTITLE6=Gypsy Eyes
TTITLE7=Gypsy Eyes
TTITLE8=House Burning Down
TTITLE9=Three Little Bears/South Saturn Delta Instrumental Jam
TTITLE10=Voodoo Child (Slight Return)
TTITLE11=Voodoo Child (Slight Return)
TTITLE12=Voodoo Child (Slight Return)
TTITLE13=Voodoo Child (Slight Return)
TTITLE14=Voodoo Child (Slight Return)
TTITLE15=Voodoo Child (Slight Return)
EXTD=
EXTT0=
EXTT1=
EXTT2=
EXTT3=
EXTT4=
EXTT5=
EXTT6=
EXTT7=
EXTT8=
EXTT9=
EXTT10=
EXTT11=
EXTT12=
EXTT13=
EXTT14=
EXTT15=
PLAYORDER=
